<svg width="24" height="24" viewBox="0 0 24 24" fill="none" xmlns="http://www.w3.org/2000/svg">
<path d="M15.5 23H3.5C2.67157 23 2 22.3284 2 21.5V10.5C2 9.67157 2.67157 9 3.5 9H7.5C8.32843 9 9 9.67157 9 10.5V14.5C9 15.3284 9.67157 16 10.5 16H15.5C16.3284 16 17 16.6716 17 17.5V21.5C17 22.3284 16.3284 23 15.5 23Z" fill="#E4E6E7"/>
<path d="M9.5 2H21.5C22.3284 2 23 2.67157 23 3.5V14.5C23 15.3284 22.3284 16 21.5 16H17.5C16.6716 16 16 15.3284 16 14.5V10.5C16 9.67157 15.3284 9 14.5 9H9.5C8.67157 9 8 8.32843 8 7.5V3.5C8 2.67157 8.67157 2 9.5 2Z" fill="#E4E6E7"/>
</svg>
