<svg width="710" height="200" viewBox="0 0 710 200" fill="none" xmlns="http://www.w3.org/2000/svg">
<path d="M128.571 200.006H14.2857C6.39593 200.006 0 193.61 0 185.72V80.9586C0 73.0688 6.39593 66.6729 14.2857 66.6729H52.381C60.2707 66.6729 66.6667 73.0688 66.6667 80.9586V119.054C66.6667 126.944 73.0626 133.34 80.9524 133.34H128.571C136.461 133.34 142.857 139.735 142.857 147.625V185.72C142.857 193.61 136.461 200.006 128.571 200.006Z" fill="white"/>
<path d="M71.4286 -0.000320435H185.714C193.604 -0.000320435 200 6.3956 200 14.2854V119.047C200 126.937 193.604 133.333 185.714 133.333H147.619C139.729 133.333 133.333 126.937 133.333 119.047V80.9521C133.333 73.0623 126.937 66.6663 119.048 66.6663H71.4286C63.5388 66.6663 57.1429 60.2704 57.1429 52.3806V14.2854C57.1429 6.39561 63.5388 -0.000320435 71.4286 -0.000320435Z" fill="white"/>
<path d="M659.791 180.005C642.428 180.005 629.72 174.733 621.668 164.19C613.615 153.564 609.589 137.914 609.589 117.24C609.589 96.5657 613.615 80.9569 621.668 70.4138C629.72 59.7883 642.428 54.4756 659.791 54.4756C677.154 54.4756 689.862 59.7883 697.914 70.4138C705.967 80.9569 709.993 96.5657 709.993 117.24C709.993 137.914 705.967 153.564 697.914 164.19C689.862 174.733 677.154 180.005 659.791 180.005ZM659.791 163.696C671.199 163.696 679.041 159.66 683.319 151.588C687.681 143.515 689.862 132.066 689.862 117.24C689.862 102.331 687.681 90.8823 683.319 82.8926C679.041 74.8205 671.199 70.7845 659.791 70.7845C648.383 70.7845 640.499 74.8205 636.137 82.8926C631.859 90.8823 629.72 102.331 629.72 117.24C629.72 132.066 631.859 143.515 636.137 151.588C640.499 159.66 648.383 163.696 659.791 163.696Z" fill="white"/>
<path d="M517.068 179.638L497.44 176.549L536.948 111.437V121.074L498.824 58.4335L517.697 55.3447L549.53 109.955H543.49L572.681 55.4683L592.057 58.5571L556.324 121.198V111.561L594.322 176.549L575.7 179.638L543.49 123.422H549.656L517.068 179.638Z" fill="white"/>
<path d="M437.843 180.005C420.983 180.005 407.94 174.98 398.713 164.931C389.57 154.882 384.999 138.985 384.999 117.24C384.999 106.203 386.299 96.7304 388.899 88.8231C391.5 80.9157 395.148 74.4498 399.846 69.4254C404.543 64.3186 410.037 60.5708 416.328 58.1821C422.619 55.7111 429.455 54.4756 436.837 54.4756C446.315 54.4756 454.493 56.5348 461.372 60.6532C468.334 64.6892 473.702 70.455 477.477 77.9505C481.251 85.446 483.138 94.3005 483.138 104.514C483.138 106.409 483.055 108.921 482.887 112.051C482.719 115.181 482.426 118.558 482.006 122.182H397.958L405.256 115.14C404.753 128.401 406.011 138.532 409.031 145.533C412.134 152.535 416.328 157.353 421.613 159.989C426.981 162.543 432.853 163.819 439.227 163.819C446.022 163.819 452.145 163.078 457.597 161.595C463.133 160.03 468.711 157.971 474.331 155.418L481 169.626C475.128 172.839 468.376 175.392 460.743 177.286C453.193 179.098 445.56 180.005 437.843 180.005ZM464.014 116.622V108.344C464.769 96.648 462.756 87.3405 457.975 80.4215C453.277 73.5026 446.189 70.0432 436.711 70.0432C425.89 70.0432 417.712 73.9968 412.176 81.9042C406.64 89.8115 404.333 100.684 405.256 114.522L397.958 108.839H470.682L464.014 116.622Z" fill="white"/>
<path d="M334.993 180.003L254.594 43.4778L259.879 42.7365V178.644H239.999V20.0029H261.514L341.032 154.428L335.748 155.169V20.0029H355.502V177.779L334.993 180.003Z" fill="white"/>
</svg>
